<svg width="23" height="17" viewBox="0 0 23 17" fill="none" xmlns="http://www.w3.org/2000/svg">
<path d="M17.7063 3.35508H15.8425V2.68267C15.8425 2.50433 15.7443 2.3333 15.5695 2.2072C15.3948 2.0811 15.1577 2.01025 14.9106 2.01025C14.6634 2.01025 14.4264 2.0811 14.2516 2.2072C14.0769 2.3333 13.9787 2.50433 13.9787 2.68267V3.35508H8.38721V2.68267C8.38721 2.50433 8.28902 2.3333 8.11425 2.2072C7.93949 2.0811 7.70245 2.01025 7.45529 2.01025C7.20814 2.01025 6.9711 2.0811 6.79633 2.2072C6.62157 2.3333 6.52338 2.50433 6.52338 2.68267V3.35508H4.65956C3.91809 3.35508 3.20698 3.56761 2.68268 3.94592C2.15838 4.32422 1.86383 4.83732 1.86383 5.37232V13.4413C1.86383 13.9763 2.15838 14.4894 2.68268 14.8677C3.20698 15.246 3.91809 15.4585 4.65956 15.4585H17.7063C18.4478 15.4585 19.1589 15.246 19.6832 14.8677C20.2075 14.4894 20.502 13.9763 20.502 13.4413V5.37232C20.502 4.83732 20.2075 4.32422 19.6832 3.94592C19.1589 3.56761 18.4478 3.35508 17.7063 3.35508ZM18.6382 13.4413C18.6382 13.6196 18.54 13.7907 18.3653 13.9168C18.1905 14.0429 17.9535 14.1137 17.7063 14.1137H4.65956C4.4124 14.1137 4.17537 14.0429 4.0006 13.9168C3.82584 13.7907 3.72765 13.6196 3.72765 13.4413V8.73439H18.6382V13.4413ZM18.6382 7.38956H3.72765V5.37232C3.72765 5.19399 3.82584 5.02296 4.0006 4.89685C4.17537 4.77075 4.4124 4.69991 4.65956 4.69991H6.52338V5.37232C6.52338 5.55066 6.62157 5.72169 6.79633 5.84779C6.9711 5.97389 7.20814 6.04474 7.45529 6.04474C7.70245 6.04474 7.93949 5.97389 8.11425 5.84779C8.28902 5.72169 8.38721 5.55066 8.38721 5.37232V4.69991H13.9787V5.37232C13.9787 5.55066 14.0769 5.72169 14.2516 5.84779C14.4264 5.97389 14.6634 6.04474 14.9106 6.04474C15.1577 6.04474 15.3948 5.97389 15.5695 5.84779C15.7443 5.72169 15.8425 5.55066 15.8425 5.37232V4.69991H17.7063C17.9535 4.69991 18.1905 4.77075 18.3653 4.89685C18.54 5.02296 18.6382 5.19399 18.6382 5.37232V7.38956Z" fill="#0061E0"/>
</svg>
