<svg width="18" height="13" viewBox="0 0 18 13" fill="none" xmlns="http://www.w3.org/2000/svg">
<path d="M9.83569 0.928091L16.8172 5.16588C17.0915 5.33178 17.3092 5.52928 17.4578 5.74694C17.6064 5.96461 17.6829 6.19813 17.6829 6.43399C17.6829 6.66985 17.6064 6.90336 17.4578 7.12103C17.3092 7.3387 17.0915 7.5362 16.8172 7.7021L11.9624 10.6498C10.8081 11.3491 8.93954 11.3491 7.78671 10.6498L0.907856 6.47388C0.360546 6.14137 0.0496368 5.69043 0.0424995 5.21877L0.00729942 2.19575C0.00592995 1.9578 0.0817909 1.72205 0.230492 1.50214C0.379192 1.28223 0.597776 1.08254 0.873592 0.914617C1.14941 0.746694 1.47698 0.613879 1.83734 0.52386C2.1977 0.433842 2.5837 0.388407 2.97298 0.390187L7.76031 0.402738C8.53789 0.404313 9.2833 0.593575 9.83569 0.928091ZM3.8838 3.66961C4.09642 3.79848 4.38373 3.87079 4.68316 3.87079C4.98259 3.87079 5.2699 3.79848 5.48251 3.66961C5.58726 3.6061 5.67039 3.53055 5.72713 3.44731C5.78386 3.36406 5.81308 3.27478 5.81308 3.1846C5.81308 3.09442 5.78386 3.00513 5.72713 2.92189C5.67039 2.83865 5.58726 2.76309 5.48251 2.69959C5.2699 2.57071 4.98259 2.4984 4.68316 2.4984C4.38373 2.4984 4.09642 2.57071 3.8838 2.69959C3.44379 2.96854 3.44379 3.40245 3.8838 3.66961ZM17.6048 8.23462C17.8019 8.55692 17.843 8.90707 17.7234 9.24328C17.6038 9.57949 17.3284 9.88756 16.9302 10.1307L14.0495 11.8915C13.5048 12.2245 12.858 12.4886 12.1462 12.6689C11.4344 12.8491 10.6714 12.9419 9.90096 12.9419C9.1305 12.9419 8.36757 12.8491 7.65576 12.6689C6.94394 12.4886 6.29717 12.2245 5.75239 11.8915L0.645315 8.76984C0.232607 8.51789 0.000478745 8.17607 -3.43323e-05 7.81954V7.12026L5.75239 10.6364C5.85359 10.6982 5.95773 10.7574 6.06333 10.813L6.78935 11.2576C7.19795 11.5074 7.68304 11.7056 8.21694 11.8408C8.75084 11.976 9.32307 12.0455 9.90096 12.0455C10.4789 12.0455 11.0511 11.976 11.585 11.8408C12.1189 11.7056 12.604 11.5074 13.0126 11.2576L13.7445 10.8103C13.8494 10.7545 13.9512 10.6965 14.0495 10.6364L16.9302 8.87562C17.2279 8.6941 17.458 8.47546 17.6048 8.23462Z" fill="#0061E0"/>
</svg>
